<svg xmlns="http://www.w3.org/2000/svg" viewBox="0 0 114.35 121.57"><defs><style>.cls-1{fill:#3fc2c0;}.cls-2{fill:#8962bb;}</style></defs><g id="Layer_2" data-name="Layer 2"><g id="OBJECTS"><path class="cls-1" d="M85.1,77.05S78,119.35,28.91,106.59c-5.69-1.48-12.06-4.74-18.2-8.82a46.23,46.23,0,0,0,14.57,13.7c21.81,13,62.64,23.22,89.07-34.42Z"/><path class="cls-2" d="M30.29,55.8a27.47,27.47,0,0,0,49,18.84c0,.11-.15.62-.41,1.47C68,111.52,18.32,113.84,4.28,79.54A57.71,57.71,0,1,1,112.87,40.79H79.34a27.47,27.47,0,0,0-49.05,15Z"/><path class="cls-2" d="M112.87,40.79H79.34v0c-.28-.65-10-22-36.53-21.46C11.56,20,0,57.7,0,57.7A57.7,57.7,0,0,1,112.87,40.79Z"/><path class="cls-1" d="M50.3,120.6l-.87.1c21.1,3.72,46.51-3.48,64.92-43.65H85.1S88.33,116.35,50.3,120.6Z"/></g></g></svg>
