<?xml version="1.0" encoding="UTF-8"?>
<svg version="1.1" xmlns="http://www.w3.org/2000/svg" width="2000" height="2000">
<path d="M0 0 C10.463127 9.31787149 19.69309062 19.17216387 27.96191406 30.49584961 C28.37650879 31.06078125 28.79110352 31.62571289 29.21826172 32.20776367 C49.07019208 59.63694688 60.08182377 90.77038559 64.44418335 124.12149048 C70.68512361 171.35619769 80.71936054 218.3163398 95.96191406 263.49584961 C96.34669922 264.64327637 96.73148438 265.79070312 97.12792969 266.97290039 C113.81028603 316.27595272 136.96969927 363.0541601 169.96191406 403.49584961 C170.39874512 404.03709473 170.83557617 404.57833984 171.28564453 405.13598633 C182.83975328 419.3737396 195.85417508 433.2027347 210.36035156 444.45288086 C212.89792206 446.44559763 215.31061168 448.53154138 217.72998047 450.66381836 C231.33075294 462.59660774 246.19290662 472.76699553 261.21191406 482.80834961 C261.83300049 483.22455566 262.45408691 483.64076172 263.09399414 484.06958008 C276.27576764 492.88531595 289.42950526 501.24848367 304.02441406 507.55834961 C305.18706787 508.0658374 306.34972168 508.5733252 307.54760742 509.09619141 C381.96675142 541.19946522 463.49778076 544.25915887 539.29272461 514.4609375 C542.52473139 513.15983452 545.74564076 511.83534791 548.96191406 510.49584961 C549.9923584 510.06788086 551.02280273 509.63991211 552.08447266 509.19897461 C567.40213054 502.74226943 581.21152883 494.80363382 594.96191406 485.49584961 C596.38240268 484.54780662 597.80296988 483.59988137 599.22363281 482.65209961 C613.61821331 472.96394871 627.71654305 462.7095998 640.96191406 451.49584961 C642.00442544 450.62681106 643.04741935 449.75835113 644.09082031 448.89038086 C660.62191598 435.08907819 676.66492018 420.49165517 689.96191406 403.49584961 C690.86525601 402.40229503 691.7716888 401.31128872 692.68066406 400.22241211 C746.52738089 335.25918584 772.77860162 249.67104438 796.02441406 120.99584961 C802.36010522 72.17732723 826.86972458 25.64757679 865.77441406 -5.12915039 C868.14604561 -6.95482982 870.54485257 -8.73915486 872.96191406 -10.50415039 C873.5268457 -10.91874512 874.09177734 -11.33333984 874.67382812 -11.76049805 C915.88850197 -41.58970691 967.98493403 -53.50724176 1018.20532227 -45.98706055 C1057.81419244 -39.2452844 1093.06790753 -21.21637923 1121.96191406 6.49584961 C1122.49848633 7.00519043 1123.03505859 7.51453125 1123.58789062 8.03930664 C1155.81347955 38.76053014 1179.00012887 84.75396143 1180.12304688 129.77441406 C1180.14291696 131.30258792 1180.1566482 132.83085086 1180.16503906 134.35913086 C1180.17073914 135.19059128 1180.17643921 136.0220517 1180.18231201 136.87870789 C1180.1917089 138.63429516 1180.1982747 140.38989966 1180.20214844 142.14550781 C1180.21174876 144.76327608 1180.24277868 147.38022159 1180.27441406 149.99780273 C1180.36847101 164.93471469 1178.71012098 179.5681379 1174.71191406 193.99584961 C1174.39613403 195.15419312 1174.39613403 195.15419312 1174.07397461 196.3359375 C1165.23909143 227.76828368 1149.32529455 254.9948701 1127.27441406 278.93334961 C1126.76418701 279.48837158 1126.25395996 280.04339355 1125.72827148 280.61523438 C1111.81808598 295.42328135 1094.82910796 307.02711288 1076.96191406 316.49584961 C1076.26662598 316.86548828 1075.57133789 317.23512695 1074.85498047 317.6159668 C1055.23218937 327.85928089 1034.26446412 333.07605519 1012.74389648 337.57055664 C979.67226774 344.48175533 947.75754813 354.56472493 916.96191406 368.49584961 C915.46772949 369.17067383 915.46772949 369.17067383 913.94335938 369.85913086 C880.62989965 385.04437949 849.99528851 404.98008371 821.96191406 428.49584961 C821.01445313 429.25768555 820.06699219 430.01952148 819.09082031 430.80444336 C810.44217339 437.86481264 802.55279717 445.68851122 794.64941406 453.55834961 C794.08978973 454.11279755 793.53016541 454.66724548 792.95358276 455.23849487 C786.6038169 461.54196048 780.60160794 467.92620532 775.02416992 474.93847656 C773.03077962 477.41045045 770.95900861 479.77399228 768.82910156 482.12866211 C765.01522688 486.37948441 761.50499046 490.79754812 758.08691406 495.37084961 C757.45615967 496.21454102 756.82540527 497.05823242 756.17553711 497.92749023 C743.04329831 515.70770114 730.97758087 534.33780714 719.96191406 553.49584961 C719.55634277 554.19806641 719.15077148 554.9002832 718.73291016 555.6237793 C715.72033034 560.86721687 712.81812855 566.16580204 709.96191406 571.49584961 C709.41164551 572.52258789 708.86137695 573.54932617 708.29443359 574.60717773 C682.31561784 623.36068473 662.63069529 674.88256393 645.64752197 727.37908936 C644.9886728 729.41323411 644.32611503 731.44613369 643.66259766 733.47875977 C634.97277415 760.15676842 627.48483359 787.23322677 620.70410156 814.45678711 C611.81628988 850.11368469 598.10928841 882.0486522 572.98144531 909.28881836 C571.22286499 911.21067113 569.55371631 913.1723245 567.89941406 915.18334961 C564.59080032 919.04637971 560.87639683 922.25922579 556.96191406 925.49584961 C556.44483887 925.93058594 555.92776367 926.36532227 555.39501953 926.81323242 C546.08591028 934.6171177 536.46169188 941.39138887 525.96191406 947.49584961 C525.35943848 947.85130859 524.75696289 948.20676758 524.13623047 948.57299805 C481.42778338 973.53019758 427.73711438 978.88853174 380.24389648 966.60766602 C350.06760465 958.32374146 323.1676264 943.73064242 300.16894531 922.51538086 C298.24709254 920.75680054 296.28543917 919.08765186 294.27441406 917.43334961 C290.41100357 914.12441007 287.20112343 910.40861858 283.96191406 906.49584961 C283.53249512 905.98940918 283.10307617 905.48296875 282.66064453 904.96118164 C260.22372255 878.43921375 247.37786903 847.83082271 239.11935425 814.35015869 C237.64971422 808.40715882 236.13051433 802.47687608 234.61035156 796.54663086 C234.30493942 795.35402649 233.99952728 794.16142212 233.68486023 792.93267822 C210.06580001 701.27615552 176.69554398 607.67248124 88.27001953 479.0144043 C86.99502693 477.5342897 85.76095727 476.01923179 84.52832031 474.50366211 C77.50085539 465.89980568 69.730459 458.04773514 61.89941406 450.18334961 C61.34478485 449.62354401 60.79015564 449.0637384 60.21871948 448.48696899 C53.12148906 441.33760602 45.85312638 434.76931056 37.96191406 428.49584961 C36.86001384 427.56115503 35.76368892 426.61978493 34.67675781 425.66772461 C15.28887862 408.76127581 -6.60945973 394.97991738 -29.03808594 382.49584961 C-29.84165527 382.04741699 -30.64522461 381.59898437 -31.47314453 381.13696289 C-73.68181633 357.7923141 -119.76570438 344.0719283 -166.77636719 334.29663086 C-193.03481627 328.76149013 -218.38804566 318.61756291 -240.03808594 302.49584961 C-240.57127441 302.10107422 -241.10446289 301.70629883 -241.65380859 301.29956055 C-248.56777965 296.14211187 -255.13441359 290.65537138 -261.47558594 284.80834961 C-262.03036621 284.29828369 -262.58514648 283.78821777 -263.15673828 283.26269531 C-293.87726728 254.4086251 -312.80239479 213.77018626 -319.03808594 172.49584961 C-319.21243164 171.42657227 -319.38677734 170.35729492 -319.56640625 169.25561523 C-320.08604603 165.11355901 -320.23493966 161.07518434 -320.27636719 156.90600586 C-320.28616104 156.09282898 -320.2959549 155.2796521 -320.30604553 154.4418335 C-320.47790695 136.45830623 -320.33823919 119.06953527 -316.03808594 101.49584961 C-315.8237793 100.59962891 -315.60947266 99.7034082 -315.38867188 98.7800293 C-303.4538001 50.22403715 -272.6966667 7.85612182 -230.41308594 -18.81665039 C-228.29773833 -20.06235509 -226.17255521 -21.29150179 -224.03808594 -22.50415039 C-222.91660156 -23.15770508 -221.79511719 -23.81125977 -220.63964844 -24.48461914 C-150.70638372 -64.23626033 -59.9067559 -52.21923077 0 0 Z " fill="#4FC08D" transform="translate(570.0380859375,633.504150390625)"/>
<path d="M0 0 C0.81189789 -0.00974854 1.62379578 -0.01949707 2.46029663 -0.02954102 C20.43960871 -0.20095826 37.7247481 0.04922393 55.3125 4.23828125 C56.0849707 4.40956543 56.85744141 4.58084961 57.65332031 4.75732422 C92.61360212 12.61772451 122.55646108 31.98223891 148.3125 56.23828125 C148.9725 56.85574219 149.6325 57.47320312 150.3125 58.109375 C155.45858943 63.07678077 159.95474487 68.57683931 164.3125 74.23828125 C164.76786133 74.82834961 165.22322266 75.41841797 165.69238281 76.02636719 C196.16798188 116.04754373 209.46711339 167.48494638 203.06640625 217.32421875 C197.35385615 256.70947981 181.45554781 292.63655111 154.390625 321.97265625 C152.49431669 324.04006005 150.68220394 326.15578218 148.875 328.30078125 C119.71281475 361.42163418 72.25696101 381.2233124 29.01513672 385.07055664 C-24.03750096 388.36298321 -75.32894651 373.55925346 -115.6875 338.23828125 C-122.79536707 331.95410952 -129.71686478 325.63610778 -135.6875 318.23828125 C-136.4815625 317.29339844 -137.275625 316.34851563 -138.09375 315.375 C-170.2215925 276.48712026 -185.80364595 225.45480792 -181.1875 175.24609375 C-176.48218899 130.99121783 -158.85285793 91.92537905 -128.6875 59.23828125 C-127.98608887 58.47692871 -127.98608887 58.47692871 -127.27050781 57.70019531 C-120.0799171 49.99192348 -112.11136395 43.52009167 -103.6875 37.23828125 C-102.85734375 36.61308594 -102.0271875 35.98789062 -101.171875 35.34375 C-87.08021015 25.11051719 -71.86163174 17.57389236 -55.6875 11.23828125 C-55.02572754 10.9767627 -54.36395508 10.71524414 -53.68212891 10.44580078 C-36.93209614 3.96612368 -17.95794171 0.17953406 0 0 Z " fill="#35495E" transform="translate(988.6875,393.76171875)"/>
</svg>
